PathFileType	4	(X/Y/Z)	Patient4_TMGait_0pt3_02_right_16.trc.trc
DataRate	CameraRate	NumFrames	NumMarkers	Units	OrigDataRate	OrigDataStartFrame	OrigNumFrames
51.851851851852	51.851851851852	4	33	mm	51.851851851852	71	       141
Frame#	Time	Sacral			L.Shoulder			Chest			R.Shoulder			Neck			R.ASIS			L.ASIS			R.Thigh.Superior			R.Thigh.Lateral			R.Thigh.Inferior			R.Patella			L.Thigh.Superior			L.Thigh.Lateral			L.Thigh.Inferior			L.Patella			L.Shank.Superior			L.Shank.Lateral			L.Shank.Inferior			R.Shank.Superior			R.Shank.Lateral			R.Shank.Inferior			R.Heel			R.Midfoot.Superior			R.Midfoot.Lateral			R.Toe			L.Heel			L.Midfoot.Lateral			L.Midfoot.Superior			L.Toe			L.Elbow			L.Wrist			R.Elbow			R.Wrist			
		X1	Y1	Z1	X2	Y2	Z2	X3	Y3	Z3	X4	Y4	Z4	X5	Y5	Z5	X6	Y6	Z6	X7	Y7	Z7	X8	Y8	Z8	X9	Y9	Z9	X10	Y10	Z10	X11	Y11	Z11	X12	Y12	Z12	X13	Y13	Z13	X14	Y14	Z14	X15	Y15	Z15	X16	Y16	Z16	X17	Y17	Z17	X18	Y18	Z18	X19	Y19	Z19	X20	Y20	Z20	X21	Y21	Z21	X22	Y22	Z22	X23	Y23	Z23	X24	Y24	Z24	X25	Y25	Z25	X26	Y26	Z26	X27	Y27	Z27	X28	Y28	Z28	X29	Y29	Z29	X30	Y30	Z30	X31	Y31	Z31	X32	Y32	Z32	X33	Y33	Z33	

71	31.390000000000	706.300160253897	1011.150743472530	557.441354413330	878.352662834916	1420.636756300192	336.080630491647	1004.348245717635	1349.224284292538	478.943603206144	959.652433935560	1436.734881031369	659.688563510249	892.700834292731	1487.266808272224	489.939867003420	941.859201037653	928.920385562928	642.739607672990	895.847626649459	953.855239507294	372.963166430801	946.176799990624	720.182493405405	604.137246210158	853.218502459793	618.473288646643	665.847816549574	911.666958095313	561.199022165011	576.821566567350	896.887388729118	473.871947046364	578.456158798945	961.590383660241	757.119893016900	400.596387601920	892.457925872156	635.509599732498	328.785388645028	989.256819554763	571.560628993286	390.453917322890	1002.459199774188	507.847652326466	390.122324821929	992.093995328033	437.016093339265	376.332536243579	930.479664628347	307.191387276047	320.924519338235	1017.188199886744	209.004752039132	378.488841176733	855.026100026391	389.922460157584	584.082236783429	771.809878894624	294.282718918647	644.749492194216	794.952670014677	198.581500304804	574.755685029430	639.362652543858	43.799793317176	539.412457907012	810.999105801258	95.203723680088	578.848136176454	720.556403086684	37.115035861969	615.767471629772	928.968053619922	40.966601588237	612.053750274557	929.396136022596	36.882815069395	410.798592458006	1007.304762461774	38.860808969867	334.190430280610	1082.185642366337	109.222676812260	361.667265305929	1214.250344820567	71.133524730737	340.917625113100	704.135323286968	1111.600679805879	256.966052391887	647.632312035669	858.835441965093	291.084732011561	1129.525748386582	1154.661964857508	782.173057374727	1340.752510765725	1260.241174468600	696.391681769290	
72	31.409285714286	707.485663346571	1010.938540899751	555.428060741314	879.219250839248	1419.698115320699	332.453758978552	1005.645920550944	1348.508711378434	475.100640064573	961.363652067072	1436.495769548114	655.657166659893	893.907546241852	1486.627502877989	486.042297460338	943.202617694961	928.472039696021	640.370776959629	896.418916392045	952.899137207876	370.692136272740	945.590699090903	719.230653328195	602.374743783487	851.445995056559	618.411879823502	664.507235767817	908.885218846548	560.363247705285	575.670287360329	893.065037638347	473.351982605696	577.480293097994	961.519422097195	755.582801428609	398.217968250551	890.753915366234	634.148489412513	327.461202413280	987.362453687932	569.824252376166	388.866495561959	1000.024308248784	506.168416369098	388.915755074372	989.646904280978	435.340705280103	375.455861244696	927.279280405879	305.734167892957	320.503593029556	1013.268771774166	207.176096407530	378.428211227634	850.871299257324	389.664321667986	583.325509959970	767.203733007862	294.632138971920	644.380951700046	789.847637270805	198.626543121755	574.579109564074	633.588271071590	44.178316011313	539.521550529141	805.275011486305	95.142207416386	578.695727169455	714.797975309850	37.255352451130	615.808267112871	923.186352555621	40.808232893085	612.088161677150	923.417370208470	36.965656448296	411.268186271871	1001.275098034355	37.793872748202	334.480380100755	1077.752799932620	106.252675626084	362.352120074524	1209.081327931667	65.420900219574	341.356383951698	704.758644823731	1111.162202984390	254.416552819570	647.944165814291	858.194315924671	289.398019970086	1135.448968099891	1157.607729697259	777.516054840073	1342.136860259336	1269.716140186126	689.558735027786	
73	31.428571428571	708.668663980387	1010.881153137786	553.226608422509	880.198303104494	1418.870980765193	328.737310111266	1007.053349129136	1347.902181712079	471.164469546177	963.198853978950	1436.337787528363	651.558640639705	895.233569699100	1486.098476226115	482.075694621260	944.579738058016	928.077546141793	637.806601154073	897.034948703042	952.246494438532	368.241460530217	945.133119321150	718.367782597450	600.369303057022	849.909121554977	618.411341752812	662.937348680031	906.402305044459	559.623884820160	574.285677711736	889.619306765211	472.865491854587	576.317036978952	961.855268877742	754.648754614016	395.839113706745	889.992259754969	633.233388111042	325.950924819717	986.409535569867	568.594861436637	387.241340046806	998.692886120452	504.873278180227	387.682348629637	988.106889119943	433.992130370992	374.554455236875	924.856070678457	304.731269101526	319.812065812832	1009.692980218975	205.567287390401	378.267116941048	846.992508180397	389.467559354894	582.432769787639	762.818767245614	295.135535606952	643.946712663770	784.878724100539	198.776656101144	574.376487648541	627.860257403152	44.791192567546	539.675387118191	799.628989268350	95.129060944986	578.581114485667	709.084584611592	37.512863481403	615.876892094098	917.432346993072	40.591047915994	612.129996234694	917.427894377661	37.141892254379	411.457666498282	995.293424419815	36.900871983621	334.557914227774	1073.256964696254	103.583432816026	362.845444215139	1203.906654427858	60.197764296998	341.717272741009	706.544641455262	1110.158483939639	251.483340336569	650.701934855129	856.730811046499	287.185087782780	1140.594960842984	1160.068479386737	772.945713949392	1343.488481252084	1277.184218395811	683.105231240128	
74	31.447857142857	709.823639266024	1011.024040417307	550.812183155630	881.269827679548	1418.243722833978	324.992339346856	1008.554426024763	1347.447945495034	467.170830009692	965.162990354087	1436.282275205440	647.443935262737	896.663725009821	1485.721388107268	478.123819665711	945.941303793109	927.771423506615	635.023689206410	897.686855038708	951.930897537257	365.582326758740	944.727888248799	717.628593412767	598.129654511687	848.540513084691	618.512227281727	661.159642010889	904.172950816851	559.014131131374	572.695114672036	886.499985031041	472.450046173129	574.997555747960	962.615818316514	754.370668901026	393.501658829025	890.202300429673	632.771029206924	324.306956363543	986.439754133891	567.901383460137	385.632921246857	998.474027782535	503.966036312154	386.505103681352	987.479706531705	432.973517170330	373.694871784266	923.233318863006	304.197589422840	318.930281788628	1006.465449312247	204.218281327489	378.092226095397	843.366707450457	389.366636209744	581.434161262208	758.633220745948	295.818736801707	643.464061992796	780.043537113149	199.061476258973	574.165642625678	622.186183167779	45.676886016824	539.881806098412	794.072739449181	95.172353507007	578.514367286782	703.423156474863	37.908854800789	615.982317252239	911.709182841754	40.313187114938	612.178800588393	911.523837683907	37.383937530274	411.441503369774	989.433839450907	36.237181458592	334.489062993447	1068.688218823550	101.354768463655	363.195614561290	1198.750055787846	55.738503616670	342.003365573026	709.324271604378	1108.771745194703	248.169492921814	655.720365002874	854.662170293625	284.402458760310	1145.077674116935	1162.100552586044	768.483311376123	1345.051216677149	1282.761769729178	677.042481153819	
